<svg xmlns="http://www.w3.org/2000/svg" xmlns:xlink="http://www.w3.org/1999/xlink" id="Layer_1" x="0" y="0" version="1.1" viewBox="0 0 1280 1024" xml:space="preserve" style="enable-background:new 0 0 1280 1024"><style type="text/css">.st0{fill:#020202}.st1{fill:#7f7f7f}.st2{fill:#f9f9f9}.st3{fill:#fbfbfb}.st4{fill:#ff8000}.st5{fill:none}.st6{font-family:&apos;AvenirNextCondensed-BoldItalic&apos;}.st7{font-size:72px}</style><g><path d="M651,730H221V425h430V730z" class="st0"/><path d="M651,730H436V425h215V730z" class="st1"/><path d="M662,760H210c-16.6,0-30-13.4-30-30v-30h512v30C692,746.6,678.6,760,662,760z"/><rect width="370" height="215" x="251" y="455" class="st2"/><rect width="185" height="215" x="436" y="455" class="st3"/><path d="M582,263c-60.7,0-110,43.1-110,96c0,34.4,20.9,64.7,52.1,81.6c-9.5,13.1-20.3,25.3-32.1,36.4 c30-2.5,58.5-10.2,84.6-22.1c1.8,0.1,3.6,0.1,5.4,0.1c60.7,0,110-43.1,110-96S642.7,263,582,263z" class="st4"/><g><path d="M436,555L436,555c-16.6,0-30-13.4-30-30v-20c0-16.6,13.4-30,30-30l0,0c16.6,0,30,13.4,30,30v20 C466,541.6,452.6,555,436,555z"/><path d="M436,565c-44.2,0-80,35.8-80,80h160C516,600.8,480.2,565,436,565z"/></g><g><path d="M436,700v60h226c16.6,0,30-13.4,30-30v-30H436z"/><path d="M436,645h80c0-44.2-35.8-80-80-80V645z"/><path d="M436,555c16.6,0,30-13.4,30-30v-20c0-16.6-13.4-30-30-30V555z"/></g></g><rect width="366.2" height="193.8" x="664.9" y="486.5" class="st5"/><text class="st4 st6 st7" transform="matrix(1 0 0 1 664.9229 627.3707)">Pitch Perfect</text></svg>