<svg xmlns="http://www.w3.org/2000/svg" xmlns:xlink="http://www.w3.org/1999/xlink" style="enable-background:new 0 0 512 512" id="Capa_1" width="512" height="512" x="0" y="0" version="1.1" viewBox="0 0 512 512" xml:space="preserve"><g><path style="fill:#020202" d="M471,474.5H41v-305h430V474.5z" class="active-path" data-old_color="#050404" data-original="#0C61C6"/><path style="fill:#7f7f7f" d="M471,474.5H256v-305h215V474.5z" data-old_color="#848484" data-original="#0A4EAF"/><path style="fill:#000" d="M482,504.5H30c-16.569,0-30-13.431-30-30v-30h512v30C512,491.069,498.569,504.5,482,504.5z" data-old_color="#DCDCDC" data-original="#7D8AFF"/><rect style="fill:#f9f9f9" width="370" height="215" x="71" y="199.5" data-old_color="#F8F8F8" data-original="#E6F9FF"/><rect style="fill:#fbfbfb" width="185" height="215" x="256" y="199.5" data-old_color="#F7F9F9" data-original="#CCEFFF"/><path style="fill:#ff8000" d="M402,7.5c-60.654,0-110,43.065-110,96c0,34.415,20.861,64.652,52.123,81.602 c-9.539,13.145-20.298,25.348-32.123,36.428c29.981-2.48,58.482-10.17,84.608-22.146c1.787,0.076,3.584,0.116,5.392,0.116 c60.654,0,110-43.065,110-96S462.654,7.5,402,7.5z" data-old_color="#FFDC40" data-original="#FFDC40"/><g><path style="fill:#000" d="M256,299.5L256,299.5c-16.569,0-30-13.431-30-30v-20c0-16.569,13.431-30,30-30l0,0 c16.569,0,30,13.431,30,30v20C286,286.069,272.569,299.5,256,299.5z" data-old_color="#DCDCDC" data-original="#7D8AFF"/><path style="fill:#000" d="M256,309.5c-44.183,0-80,35.817-80,80h160C336,345.317,300.183,309.5,256,309.5z" data-old_color="#DCDCDC" data-original="#7D8AFF"/></g><g><path style="fill:#000" d="M256,444.5v60h226c16.569,0,30-13.431,30-30v-30H256z" data-old_color="#010101" data-original="#6E76E5"/><path style="fill:#000" d="M256,389.5h80c0-44.183-35.817-80-80-80V389.5z" data-old_color="#010101" data-original="#6E76E5"/><path style="fill:#000" d="M256,299.5c16.569,0,30-13.431,30-30v-20c0-16.569-13.431-30-30-30V299.5z" data-old_color="#010101" data-original="#6E76E5"/></g></g></svg>