<svg xmlns="http://www.w3.org/2000/svg" xmlns:xlink="http://www.w3.org/1999/xlink" id="Capa_1" x="0" y="0" version="1.1" viewBox="0 0 512 512" xml:space="preserve" style="enable-background:new 0 0 512 512"><style type="text/css">.st0{fill:#020202}.st1{fill:#7f7f7f}.st2{fill:#f9f9f9}.st3{fill:#fbfbfb}.st4{fill:#ff8000}</style><g><path d="M-444,466h-430V161h430V466z" class="st0"/><path d="M-444,466h-215V161h215V466z" class="st1"/><path d="M-433,496h-452c-16.6,0-30-13.4-30-30v-30h512v30C-403,482.6-416.4,496-433,496z"/><rect width="370" height="215" x="-844" y="191" class="st2"/><rect width="185" height="215" x="-659" y="191" class="st3"/><path d="M-513-1c-60.7,0-110,43.1-110,96c0,34.4,20.9,64.7,52.1,81.6c-9.5,13.1-20.3,25.3-32.1,36.4 c30-2.5,58.5-10.2,84.6-22.1c1.8,0.1,3.6,0.1,5.4,0.1c60.7,0,110-43.1,110-96S-452.3-1-513-1z" class="st4"/><g><path d="M-659,291L-659,291c-16.6,0-30-13.4-30-30v-20c0-16.6,13.4-30,30-30l0,0c16.6,0,30,13.4,30,30v20 C-629,277.6-642.4,291-659,291z"/><path d="M-659,301c-44.2,0-80,35.8-80,80h160C-579,336.8-614.8,301-659,301z"/></g><g><path d="M-659,436v60h226c16.6,0,30-13.4,30-30v-30H-659z"/><path d="M-659,381h80c0-44.2-35.8-80-80-80V381z"/><path d="M-659,291c16.6,0,30-13.4,30-30v-20c0-16.6-13.4-30-30-30V291z"/></g></g><rect style="fill:none" width="394" height="76" x="-425" y="343"/><text class="st4" transform="matrix(1 0 0 1 -425 402.4707)" style="font-family:'MarkerFelt-Wide';font-size:72px">PitchPerfect</text></svg>