<?xml version="1.0"?>
<svg xmlns="http://www.w3.org/2000/svg" xmlns:xlink="http://www.w3.org/1999/xlink" version="1.1" id="Capa_1" x="0px" y="0px" viewBox="0 0 512 512" style="enable-background:new 0 0 512 512;" xml:space="preserve" width="512px" height="512px" class=""><g><path style="fill:#020202" d="M471,474.5H41v-305h430V474.5z" data-original="#0C61C6" class="active-path" data-old_color="#050404"/><path style="fill:#7F7F7F" d="M471,474.5H256v-305h215V474.5z" data-original="#0A4EAF" class="" data-old_color="#848484"/><path style="fill:#000000" d="M482,504.5H30c-16.569,0-30-13.431-30-30v-30h512v30C512,491.069,498.569,504.5,482,504.5z" data-original="#7D8AFF" class="" data-old_color="#DCDCDC"/><rect x="71" y="199.5" style="fill:#F9F9F9" width="370" height="215" data-original="#E6F9FF" class="" data-old_color="#F8F8F8"/><rect x="256" y="199.5" style="fill:#FBFBFB" width="185" height="215" data-original="#CCEFFF" class="" data-old_color="#F7F9F9"/><path style="fill:#FF8000" d="M402,7.5c-60.654,0-110,43.065-110,96c0,34.415,20.861,64.652,52.123,81.602  c-9.539,13.145-20.298,25.348-32.123,36.428c29.981-2.48,58.482-10.17,84.608-22.146c1.787,0.076,3.584,0.116,5.392,0.116  c60.654,0,110-43.065,110-96S462.654,7.5,402,7.5z" data-original="#FFDC40" class="" data-old_color="#FFDC40"/><g>
	<path style="fill:#000000" d="M256,299.5L256,299.5c-16.569,0-30-13.431-30-30v-20c0-16.569,13.431-30,30-30l0,0   c16.569,0,30,13.431,30,30v20C286,286.069,272.569,299.5,256,299.5z" data-original="#7D8AFF" class="" data-old_color="#DCDCDC"/>
	<path style="fill:#000000" d="M256,309.5c-44.183,0-80,35.817-80,80h160C336,345.317,300.183,309.5,256,309.5z" data-original="#7D8AFF" class="" data-old_color="#DCDCDC"/>
</g><g>
	<path style="fill:#000000" d="M256,444.5v60h226c16.569,0,30-13.431,30-30v-30H256z" data-original="#6E76E5" class="" data-old_color="#010101"/>
	<path style="fill:#000000" d="M256,389.5h80c0-44.183-35.817-80-80-80V389.5z" data-original="#6E76E5" class="" data-old_color="#010101"/>
	<path style="fill:#000000" d="M256,299.5c16.569,0,30-13.431,30-30v-20c0-16.569-13.431-30-30-30V299.5z" data-original="#6E76E5" class="" data-old_color="#010101"/>
</g></g> </svg>
