<?xml version="1.0" encoding="utf-8"?>
<!-- Generator: Adobe Illustrator 21.1.0, SVG Export Plug-In . SVG Version: 6.00 Build 0)  -->
<svg version="1.1" id="Capa_1" xmlns="http://www.w3.org/2000/svg" xmlns:xlink="http://www.w3.org/1999/xlink" x="0px" y="0px"
	 viewBox="0 0 512 512" style="enable-background:new 0 0 512 512;" xml:space="preserve">
<style type="text/css">
	.st0{fill:#020202;}
	.st1{fill:#7F7F7F;}
	.st2{fill:#F9F9F9;}
	.st3{fill:#FBFBFB;}
	.st4{fill:#FF8000;}
</style>
<g>
	<path class="st0" d="M-444,466h-430V161h430V466z"/>
	<path class="st1" d="M-444,466h-215V161h215V466z"/>
	<path d="M-433,496h-452c-16.6,0-30-13.4-30-30v-30h512v30C-403,482.6-416.4,496-433,496z"/>
	<rect x="-844" y="191" class="st2" width="370" height="215"/>
	<rect x="-659" y="191" class="st3" width="185" height="215"/>
	<path class="st4" d="M-513-1c-60.7,0-110,43.1-110,96c0,34.4,20.9,64.7,52.1,81.6c-9.5,13.1-20.3,25.3-32.1,36.4
		c30-2.5,58.5-10.2,84.6-22.1c1.8,0.1,3.6,0.1,5.4,0.1c60.7,0,110-43.1,110-96S-452.3-1-513-1z"/>
	<g>
		<path d="M-659,291L-659,291c-16.6,0-30-13.4-30-30v-20c0-16.6,13.4-30,30-30l0,0c16.6,0,30,13.4,30,30v20
			C-629,277.6-642.4,291-659,291z"/>
		<path d="M-659,301c-44.2,0-80,35.8-80,80h160C-579,336.8-614.8,301-659,301z"/>
	</g>
	<g>
		<path d="M-659,436v60h226c16.6,0,30-13.4,30-30v-30H-659z"/>
		<path d="M-659,381h80c0-44.2-35.8-80-80-80V381z"/>
		<path d="M-659,291c16.6,0,30-13.4,30-30v-20c0-16.6-13.4-30-30-30V291z"/>
	</g>
</g>
<rect x="-425" y="343" style="fill:none;" width="394" height="76"/>
<text transform="matrix(1 0 0 1 -425 402.4707)" class="st4" style="font-family:'MarkerFelt-Wide'; font-size:72px;">PitchPerfect</text>
</svg>
